<svg id="Calque_1" data-name="Calque 1" xmlns="http://www.w3.org/2000/svg" xmlns:xlink="http://www.w3.org/1999/xlink" viewBox="0 0 64 64"><defs><style>.cls-1{fill:url(#Dégradé_sans_nom_2);}.cls-2{fill:#ffdc09;}</style><linearGradient id="Dégradé_sans_nom_2" x1="20.17" y1="20.09" x2="70.53" y2="73.93" gradientUnits="userSpaceOnUse"><stop offset="0.28" stop-color="#ffdc09"/><stop offset="0.82" stop-color="#ffae68"/></linearGradient></defs><circle class="cls-1" cx="32" cy="32.74" r="21"/><path class="cls-2" d="M32,4.06h-.06a2,2,0,0,0,0,4H32a2,2,0,0,0,0-4ZM12.79,12.23a2,2,0,0,0-1.44.61l0,0,0,0a2,2,0,1,0,2.89,2.76l0,0a2,2,0,0,0-1.44-3.39ZM5.35,31.73H5.27A2,2,0,0,0,3.35,33.8v.07a2,2,0,0,0,2,1.91h.08A2,2,0,0,0,7.35,33.7v0a2,2,0,0,0-2-1.93Zm8.87,18.89a2,2,0,0,0-1.34,3.49h0l0,0h0a2,2,0,0,0,2.66-3l0,0a2,2,0,0,0-1.33-.51ZM34,57.33h-.2a2,2,0,0,0,.14,4h.21a2,2,0,0,0-.15-4Zm18.53-9.6a2,2,0,0,0-1.55.72l0,0a2,2,0,0,0,1.54,3.28,2,2,0,0,0,1.54-.72v0h0v0l0,0a2,2,0,0,0-.27-2.81,2,2,0,0,0-1.27-.45Zm5.94-20-.23,0a2,2,0,0,0-1.76,2.21v0a2,2,0,0,0,2,1.78h.22a2,2,0,0,0,1.77-2.21h0v-.05a2,2,0,0,0-2-1.77ZM48.21,9.55a2,2,0,0,0-1.58.79,2,2,0,0,0,.36,2.8l0,0A2,2,0,1,0,49.47,10h0l0,0h0a2,2,0,0,0-1.22-.42Z"/></svg>