<svg id="Calque_1" data-name="Calque 1" xmlns="http://www.w3.org/2000/svg" xmlns:xlink="http://www.w3.org/1999/xlink" viewBox="0 0 64 64"><defs><style>.cls-1{fill:url(#Dégradé_sans_nom_134);}.cls-2{fill:none;stroke:#333;stroke-linecap:round;stroke-linejoin:round;stroke-width:2px;}</style><linearGradient id="Dégradé_sans_nom_134" x1="20.09" y1="15.86" x2="74.86" y2="51.58" gradientUnits="userSpaceOnUse"><stop offset="0.35" stop-color="#f2f2f2"/><stop offset="0.51" stop-color="#ececec"/><stop offset="0.71" stop-color="#ddd"/><stop offset="0.87" stop-color="#ccc"/></linearGradient></defs><path class="cls-1" d="M51.08,16.57a10.65,10.65,0,0,0-4.64,1.07h0A12.75,12.75,0,1,0,21.71,23a7.51,7.51,0,0,0,1.12,14.9H51.08a10.68,10.68,0,0,0,0-21.36Z"/><path class="cls-2" d="M38.11,29.34a12.25,12.25,0,1,1,5.32,23.29"/><path class="cls-2" d="M9.72,35.51a14.47,14.47,0,0,1-.81-4.77,14.63,14.63,0,0,1,29.2-1.4,12.25,12.25,0,0,0-6.94,11"/><path class="cls-2" d="M11.29,52.63A8.63,8.63,0,0,1,9.72,35.51"/><path class="cls-2" d="M43.43,52.63H11.29"/></svg>