<svg id="Calque_1" data-name="Calque 1" xmlns="http://www.w3.org/2000/svg" xmlns:xlink="http://www.w3.org/1999/xlink" viewBox="0 0 64 64"><defs><style>.cls-1{fill:url(#Dégradé_sans_nom_134);}.cls-2{fill:none;stroke:#333;stroke-linecap:round;stroke-linejoin:round;stroke-width:2px;}</style><linearGradient id="Dégradé_sans_nom_134" x1="19.88" y1="15.4" x2="74.65" y2="51.12" gradientUnits="userSpaceOnUse"><stop offset="0.35" stop-color="#f2f2f2"/><stop offset="0.51" stop-color="#ececec"/><stop offset="0.71" stop-color="#ddd"/><stop offset="0.87" stop-color="#ccc"/></linearGradient></defs><path class="cls-1" d="M50.87,16.11a10.65,10.65,0,0,0-4.64,1.07h0A12.75,12.75,0,1,0,21.5,22.56a7.51,7.51,0,0,0,1.12,14.9H50.87a10.68,10.68,0,0,0,0-21.36Z"/><path class="cls-2" d="M37.9,28.88a12.25,12.25,0,1,1,5.32,23.29"/><path class="cls-2" d="M9.51,35.06a14.8,14.8,0,0,1-.81-4.78,14.63,14.63,0,0,1,29.2-1.4,12.26,12.26,0,0,0-6.94,11"/><path class="cls-2" d="M11.08,52.17A8.63,8.63,0,0,1,9.51,35.06"/><line class="cls-2" x1="15.48" y1="53.88" x2="19.33" y2="49.29"/><line class="cls-2" x1="35.55" y1="55.1" x2="38.22" y2="51.91"/><line class="cls-2" x1="23.27" y1="52.59" x2="27.12" y2="47.99"/><line class="cls-2" x1="28.37" y1="55.46" x2="35.6" y2="46.85"/></svg>