<svg id="Calque_1" data-name="Calque 1" xmlns="http://www.w3.org/2000/svg" xmlns:xlink="http://www.w3.org/1999/xlink" viewBox="0 0 64 64"><defs><style>.cls-1,.cls-3{fill:none;stroke-linecap:round;stroke-linejoin:round;stroke-width:2px;}.cls-1{stroke:#ffdc09;stroke-dasharray:0 10;}.cls-2{fill:url(#Dégradé_sans_nom_2);}.cls-3{stroke:#333;}</style><linearGradient id="Dégradé_sans_nom_2" x1="37.89" y1="17.19" x2="62.27" y2="43.26" gradientUnits="userSpaceOnUse"><stop offset="0.28" stop-color="#ffdc09"/><stop offset="0.82" stop-color="#ffae68"/></linearGradient></defs><path class="cls-1" d="M32.93,13.75A14.34,14.34,0,0,1,54.3,32.87"/><circle class="cls-2" cx="43.62" cy="23.31" r="10.17"/><path class="cls-3" d="M58.72,39.91A12.25,12.25,0,0,1,46.47,52.17"/><path class="cls-3" d="M41.14,28.88a12.23,12.23,0,0,1,17.58,11"/><path class="cls-3" d="M12.76,35.06a14.63,14.63,0,1,1,28.38-6.18,12.25,12.25,0,0,0-6.93,11"/><path class="cls-3" d="M14.32,52.17a8.63,8.63,0,0,1-1.56-17.11"/><line class="cls-3" x1="18.72" y1="53.88" x2="22.58" y2="49.29"/><line class="cls-3" x1="38.79" y1="55.1" x2="41.47" y2="51.91"/><line class="cls-3" x1="26.52" y1="52.59" x2="30.37" y2="47.99"/><line class="cls-3" x1="31.62" y1="55.46" x2="38.85" y2="46.85"/></svg>