<svg id="Calque_1" data-name="Calque 1" xmlns="http://www.w3.org/2000/svg" xmlns:xlink="http://www.w3.org/1999/xlink" viewBox="0 0 64 64"><defs><style>.cls-1{fill:url(#Dégradé_sans_nom_134);}.cls-2{fill:none;stroke:#333;stroke-linecap:round;stroke-linejoin:round;stroke-width:2px;}.cls-3{fill:url(#Dégradé_sans_nom_150);}</style><linearGradient id="Dégradé_sans_nom_134" x1="19.88" y1="15.54" x2="74.65" y2="51.26" gradientUnits="userSpaceOnUse"><stop offset="0.35" stop-color="#f2f2f2"/><stop offset="0.51" stop-color="#ececec"/><stop offset="0.71" stop-color="#ddd"/><stop offset="0.87" stop-color="#ccc"/></linearGradient><linearGradient id="Dégradé_sans_nom_150" x1="24.61" y1="51.81" x2="48.04" y2="64.92" gradientUnits="userSpaceOnUse"><stop offset="0" stop-color="#ffaabf"/><stop offset="1" stop-color="#9b274e"/></linearGradient></defs><path class="cls-1" d="M50.87,16.25a10.65,10.65,0,0,0-4.64,1.07h0A12.75,12.75,0,1,0,21.5,22.7a7.51,7.51,0,0,0,1.12,14.9H50.87a10.68,10.68,0,0,0,0-21.36Z"/><path class="cls-2" d="M37.9,29a12.25,12.25,0,1,1,5.32,23.29"/><path class="cls-2" d="M9.51,35.19A14.63,14.63,0,1,1,37.9,29a12.25,12.25,0,0,0-6.94,11"/><path class="cls-2" d="M11.08,52.31A8.63,8.63,0,0,1,9.51,35.19"/><polygon class="cls-3" points="33.1 50.88 29.29 50.84 32.41 44.58 27.61 44.93 22.17 55.87 26.79 55.53 25.3 63.8 33.1 50.88"/></svg>