<svg id="Calque_1" data-name="Calque 1" xmlns="http://www.w3.org/2000/svg" xmlns:xlink="http://www.w3.org/1999/xlink" viewBox="0 0 64 64"><defs><style>.cls-1{fill:none;stroke:#333;stroke-linecap:round;stroke-linejoin:round;stroke-width:2px;}.cls-2{fill:url(#Dégradé_sans_nom_134);}</style><linearGradient id="Dégradé_sans_nom_134" x1="24.44" y1="45.65" x2="78.47" y2="75.87" gradientUnits="userSpaceOnUse"><stop offset="0.35" stop-color="#f2f2f2"/><stop offset="0.51" stop-color="#ececec"/><stop offset="0.71" stop-color="#ddd"/><stop offset="0.87" stop-color="#ccc"/></linearGradient></defs><path class="cls-1" d="M41.14,24.8a12.25,12.25,0,1,1,5.33,23.28"/><path class="cls-1" d="M12.76,31A14.63,14.63,0,1,1,41.14,24.8a12.24,12.24,0,0,0-6.93,11"/><path class="cls-1" d="M14.32,48.08A8.63,8.63,0,0,1,12.76,31"/><path class="cls-2" d="M38.19,50.38h0a.63.63,0,0,0-.77-.45L35,50.58l-.36.1L32,49.15l2.64-1.52.36.09,2.45.66a.63.63,0,0,0,.77-.45h0a.64.64,0,0,0-.44-.78l-1.59-.42,2-1.15a.62.62,0,0,0,.23-.86h0a.62.62,0,0,0-.86-.23l-2,1.14L36,44.05a.64.64,0,0,0-.44-.78h0a.64.64,0,0,0-.78.45l-.66,2.45-.09.36-2.65,1.53V45l.27-.26L33.39,43a.63.63,0,0,0,0-.9h0a.63.63,0,0,0-.9,0l-1.16,1.16V40.92a.64.64,0,0,0-.63-.64h0a.64.64,0,0,0-.63.64v2.29l-1.16-1.16a.63.63,0,0,0-.9,0h0a.63.63,0,0,0,0,.9l1.79,1.79.27.26v3.06l-2.65-1.53-.09-.36-.66-2.45a.64.64,0,0,0-.78-.45h0a.64.64,0,0,0-.44.78l.42,1.58-2-1.14a.62.62,0,0,0-.86.23h0a.62.62,0,0,0,.23.86l2,1.15-1.59.42a.64.64,0,0,0-.44.78h0a.63.63,0,0,0,.77.45l2.45-.66.36-.09,2.64,1.52-2.64,1.53-.36-.1L24,49.93a.63.63,0,0,0-.77.45h0a.62.62,0,0,0,.44.77l1.59.43-2,1.14a.64.64,0,0,0-.23.87h0a.62.62,0,0,0,.86.23l2-1.15-.42,1.59a.63.63,0,0,0,.44.77h0a.64.64,0,0,0,.78-.45l.66-2.44.09-.36,2.65-1.53v3l-.27.27L28,55.36a.62.62,0,0,0,0,.89h0a.63.63,0,0,0,.9,0l1.16-1.15v2.29a.63.63,0,0,0,.63.63h0a.63.63,0,0,0,.63-.63V55.1l1.16,1.15a.63.63,0,0,0,.9,0h0a.62.62,0,0,0,0-.89L31.6,53.57l-.27-.27v-3L34,51.78l.09.36.66,2.44a.64.64,0,0,0,.78.45h0a.63.63,0,0,0,.44-.77l-.42-1.59,2,1.15a.62.62,0,0,0,.86-.23h0a.64.64,0,0,0-.23-.87l-2-1.14,1.59-.43A.63.63,0,0,0,38.19,50.38Z"/></svg>